<svg width="1350" height="100" viewBox="0 0 1350 100" fill="none" xmlns="http://www.w3.org/2000/svg">
<path fill-rule="evenodd" clip-rule="evenodd" d="M0 0L55.8984 3.75723C112.852 7.51445 224.648 15.0289 337.5 27.7457C450.352 40.7514 562.148 59.2486 675 63.0058C787.852 66.763 899.648 55.4913 1012.5 52.0231C1125.35 48.2659 1237.15 52.0231 1294.1 53.7572L1350 55.4913V100H1294.1C1237.15 100 1125.35 100 1012.5 100C899.648 100 787.852 100 675 100C562.148 100 450.352 100 337.5 100C224.648 100 112.852 100 55.8984 100H0V0Z" fill="#20DF7F" fill-opacity="0.8"/>
<path fill-rule="evenodd" clip-rule="evenodd" d="M0 40L45 48C90 56 180 72 270 68C360 64 450 40 540 24C630 8 720 0 810 0C900 0 990 8 1080 22C1170 36 1260 56 1305 66L1350 76V100H1305C1260 100 1170 100 1080 100C990 100 900 100 810 100C720 100 630 100 540 100C450 100 360 100 270 100C180 100 90 100 45 100H0V40Z" fill="#224957" fill-opacity="0.8"/>
</svg>
